<?xml version="1.0" encoding="UTF-8"?>
<svg xmlns="http://www.w3.org/2000/svg" version="1.1" width="100" height="100" viewBox="0 0 100 100"><rect x="0" y="0" width="100" height="100" fill="#ffffff"/><g transform="scale(3.448)"><g transform="translate(0,0)"><path fill-rule="evenodd" d="M8 0L8 1L9 1L9 2L8 2L8 5L9 5L9 4L11 4L11 5L10 5L10 10L9 10L9 8L8 8L8 9L7 9L7 8L6 8L6 9L4 9L4 8L0 8L0 11L1 11L1 12L0 12L0 13L1 13L1 14L2 14L2 15L1 15L1 18L0 18L0 19L1 19L1 18L2 18L2 19L3 19L3 20L1 20L1 21L5 21L5 20L6 20L6 21L7 21L7 20L6 20L6 19L9 19L9 20L8 20L8 22L11 22L11 21L10 21L10 20L12 20L12 19L9 19L9 17L8 17L8 18L6 18L6 17L7 17L7 16L10 16L10 17L11 17L11 16L12 16L12 17L13 17L13 16L12 16L12 14L13 14L13 15L14 15L14 17L15 17L15 18L13 18L13 21L15 21L15 19L16 19L16 18L17 18L17 16L16 16L16 17L15 17L15 15L14 15L14 14L13 14L13 13L14 13L14 11L15 11L15 10L16 10L16 12L15 12L15 14L16 14L16 15L20 15L20 16L18 16L18 17L20 17L20 18L21 18L21 17L22 17L22 16L21 16L21 15L20 15L20 14L21 14L21 13L20 13L20 12L23 12L23 13L22 13L22 14L23 14L23 15L24 15L24 16L23 16L23 18L22 18L22 20L19 20L19 19L17 19L17 22L18 22L18 23L20 23L20 25L18 25L18 24L17 24L17 23L15 23L15 22L14 22L14 23L9 23L9 24L10 24L10 25L11 25L11 26L9 26L9 25L8 25L8 29L10 29L10 28L11 28L11 29L12 29L12 28L14 28L14 27L15 27L15 26L16 26L16 25L17 25L17 26L18 26L18 28L19 28L19 29L21 29L21 27L20 27L20 25L21 25L21 26L22 26L22 25L23 25L23 27L24 27L24 26L26 26L26 27L25 27L25 29L26 29L26 27L27 27L27 29L28 29L28 27L29 27L29 23L28 23L28 22L29 22L29 21L27 21L27 18L28 18L28 15L29 15L29 13L27 13L27 12L26 12L26 11L28 11L28 12L29 12L29 11L28 11L28 10L29 10L29 8L28 8L28 10L26 10L26 11L25 11L25 13L27 13L27 14L25 14L25 15L24 15L24 14L23 14L23 13L24 13L24 10L25 10L25 9L27 9L27 8L24 8L24 9L22 9L22 8L21 8L21 5L20 5L20 3L21 3L21 2L20 2L20 3L19 3L19 1L21 1L21 0L17 0L17 2L16 2L16 3L15 3L15 5L16 5L16 4L19 4L19 5L17 5L17 6L16 6L16 7L17 7L17 8L16 8L16 9L14 9L14 11L13 11L13 6L14 6L14 8L15 8L15 6L14 6L14 5L13 5L13 4L14 4L14 2L15 2L15 0L14 0L14 2L13 2L13 0L12 0L12 1L11 1L11 0L10 0L10 1L9 1L9 0ZM11 2L11 4L12 4L12 3L13 3L13 2ZM17 2L17 3L18 3L18 2ZM12 5L12 6L11 6L11 8L12 8L12 6L13 6L13 5ZM8 6L8 7L9 7L9 6ZM17 6L17 7L18 7L18 6ZM19 6L19 7L20 7L20 6ZM20 8L20 9L21 9L21 8ZM6 9L6 10L7 10L7 11L6 11L6 12L8 12L8 13L5 13L5 12L4 12L4 11L3 11L3 12L2 12L2 14L4 14L4 13L5 13L5 14L7 14L7 15L6 15L6 16L5 16L5 15L2 15L2 18L3 18L3 19L4 19L4 20L5 20L5 18L3 18L3 17L4 17L4 16L5 16L5 17L6 17L6 16L7 16L7 15L8 15L8 13L9 13L9 14L11 14L11 13L12 13L12 12L13 12L13 11L11 11L11 13L9 13L9 10L7 10L7 9ZM11 9L11 10L12 10L12 9ZM17 9L17 10L18 10L18 11L17 11L17 12L18 12L18 14L19 14L19 12L20 12L20 10L18 10L18 9ZM1 10L1 11L2 11L2 10ZM18 11L18 12L19 12L19 11ZM3 12L3 13L4 13L4 12ZM16 13L16 14L17 14L17 13ZM10 15L10 16L11 16L11 15ZM25 15L25 17L24 17L24 18L26 18L26 17L27 17L27 15ZM23 19L23 20L26 20L26 19ZM21 21L21 24L24 24L24 21ZM22 22L22 23L23 23L23 22ZM26 22L26 23L25 23L25 25L26 25L26 24L28 24L28 23L27 23L27 22ZM12 24L12 26L11 26L11 28L12 28L12 26L13 26L13 27L14 27L14 26L15 26L15 24ZM13 25L13 26L14 26L14 25ZM27 25L27 27L28 27L28 25ZM16 27L16 28L15 28L15 29L16 29L16 28L17 28L17 27ZM23 28L23 29L24 29L24 28ZM0 0L0 7L7 7L7 0ZM1 1L1 6L6 6L6 1ZM2 2L2 5L5 5L5 2ZM22 0L22 7L29 7L29 0ZM23 1L23 6L28 6L28 1ZM24 2L24 5L27 5L27 2ZM0 22L0 29L7 29L7 22ZM1 23L1 28L6 28L6 23ZM2 24L2 27L5 27L5 24Z" fill="#000000"/></g></g></svg>
