<?xml version="1.0" encoding="UTF-8"?>
<svg xmlns="http://www.w3.org/2000/svg" version="1.1" width="100" height="100" viewBox="0 0 100 100"><rect x="0" y="0" width="100" height="100" fill="#ffffff"/><g transform="scale(2.703)"><g transform="translate(0,0)"><path fill-rule="evenodd" d="M8 0L8 4L9 4L9 5L8 5L8 7L9 7L9 6L10 6L10 9L11 9L11 8L12 8L12 9L13 9L13 10L15 10L15 9L14 9L14 7L15 7L15 8L17 8L17 9L16 9L16 11L17 11L17 12L15 12L15 11L14 11L14 12L13 12L13 11L12 11L12 12L11 12L11 10L10 10L10 13L12 13L12 14L11 14L11 16L12 16L12 17L13 17L13 18L15 18L15 17L14 17L14 15L15 15L15 16L20 16L20 17L19 17L19 18L20 18L20 17L21 17L21 18L22 18L22 17L23 17L23 19L24 19L24 20L22 20L22 19L21 19L21 20L22 20L22 22L20 22L20 19L18 19L18 18L17 18L17 17L16 17L16 19L17 19L17 20L15 20L15 19L14 19L14 20L13 20L13 19L12 19L12 20L11 20L11 21L9 21L9 20L10 20L10 18L11 18L11 17L10 17L10 15L7 15L7 14L6 14L6 13L8 13L8 12L5 12L5 11L4 11L4 10L3 10L3 9L2 9L2 8L0 8L0 9L2 9L2 10L3 10L3 11L4 11L4 12L2 12L2 11L1 11L1 12L0 12L0 13L2 13L2 14L0 14L0 15L2 15L2 16L3 16L3 17L2 17L2 18L1 18L1 16L0 16L0 18L1 18L1 19L0 19L0 20L1 20L1 21L0 21L0 22L1 22L1 21L2 21L2 22L3 22L3 21L7 21L7 22L5 22L5 23L1 23L1 24L0 24L0 26L2 26L2 28L0 28L0 29L3 29L3 28L4 28L4 27L5 27L5 29L7 29L7 28L9 28L9 29L8 29L8 30L10 30L10 31L11 31L11 32L10 32L10 33L9 33L9 31L8 31L8 33L9 33L9 35L8 35L8 37L12 37L12 36L13 36L13 37L15 37L15 36L18 36L18 34L17 34L17 32L18 32L18 31L19 31L19 29L20 29L20 28L19 28L19 26L20 26L20 27L21 27L21 29L22 29L22 30L23 30L23 31L21 31L21 30L20 30L20 31L21 31L21 32L22 32L22 33L23 33L23 36L22 36L22 35L21 35L21 36L20 36L20 37L21 37L21 36L22 36L22 37L23 37L23 36L25 36L25 35L26 35L26 36L27 36L27 37L28 37L28 35L30 35L30 36L29 36L29 37L30 37L30 36L32 36L32 33L33 33L33 35L34 35L34 37L37 37L37 36L36 36L36 35L35 35L35 34L34 34L34 33L36 33L36 34L37 34L37 33L36 33L36 32L37 32L37 31L36 31L36 32L35 32L35 30L34 30L34 32L33 32L33 27L32 27L32 26L34 26L34 29L35 29L35 28L36 28L36 27L35 27L35 26L36 26L36 25L37 25L37 24L36 24L36 23L34 23L34 22L33 22L33 21L35 21L35 22L36 22L36 21L37 21L37 20L36 20L36 19L34 19L34 20L33 20L33 21L32 21L32 19L30 19L30 18L29 18L29 17L31 17L31 15L33 15L33 14L35 14L35 15L34 15L34 17L32 17L32 18L34 18L34 17L35 17L35 18L36 18L36 17L37 17L37 16L36 16L36 13L35 13L35 12L37 12L37 11L36 11L36 10L35 10L35 9L37 9L37 8L33 8L33 9L32 9L32 8L31 8L31 9L32 9L32 10L35 10L35 11L33 11L33 12L34 12L34 13L32 13L32 14L30 14L30 15L29 15L29 14L28 14L28 12L27 12L27 11L28 11L28 9L29 9L29 6L28 6L28 9L26 9L26 8L27 8L27 5L28 5L28 3L29 3L29 2L27 2L27 1L28 1L28 0L27 0L27 1L26 1L26 0L22 0L22 1L19 1L19 0L18 0L18 2L17 2L17 3L18 3L18 4L17 4L17 5L16 5L16 7L15 7L15 6L14 6L14 7L13 7L13 6L12 6L12 7L11 7L11 3L10 3L10 2L9 2L9 0ZM13 0L13 1L11 1L11 2L12 2L12 5L13 5L13 2L14 2L14 3L15 3L15 2L16 2L16 1L17 1L17 0L16 0L16 1L15 1L15 0ZM22 1L22 2L25 2L25 3L19 3L19 4L18 4L18 5L21 5L21 7L20 7L20 6L19 6L19 7L18 7L18 6L17 6L17 7L18 7L18 8L20 8L20 9L18 9L18 12L17 12L17 13L13 13L13 12L12 12L12 13L13 13L13 14L16 14L16 15L17 15L17 14L18 14L18 13L19 13L19 11L23 11L23 12L22 12L22 13L26 13L26 14L25 14L25 16L24 16L24 17L26 17L26 18L24 18L24 19L25 19L25 21L24 21L24 22L25 22L25 25L24 25L24 24L23 24L23 22L22 22L22 24L21 24L21 23L20 23L20 22L17 22L17 21L19 21L19 20L17 20L17 21L13 21L13 20L12 20L12 21L11 21L11 22L9 22L9 21L8 21L8 23L5 23L5 25L4 25L4 24L2 24L2 26L3 26L3 27L4 27L4 26L7 26L7 27L6 27L6 28L7 28L7 27L9 27L9 28L10 28L10 26L11 26L11 28L12 28L12 29L11 29L11 30L12 30L12 29L13 29L13 30L17 30L17 27L16 27L16 25L17 25L17 26L19 26L19 25L20 25L20 26L22 26L22 24L23 24L23 25L24 25L24 26L25 26L25 27L23 27L23 28L25 28L25 29L24 29L24 30L25 30L25 33L24 33L24 35L25 35L25 34L27 34L27 33L28 33L28 34L30 34L30 33L28 33L28 28L32 28L32 27L30 27L30 26L32 26L32 25L34 25L34 26L35 26L35 25L34 25L34 23L33 23L33 24L32 24L32 25L29 25L29 24L30 24L30 22L31 22L31 23L32 23L32 21L29 21L29 20L30 20L30 19L27 19L27 17L28 17L28 16L29 16L29 15L28 15L28 16L27 16L27 13L26 13L26 11L27 11L27 10L25 10L25 8L26 8L26 6L25 6L25 7L24 7L24 5L25 5L25 3L26 3L26 5L27 5L27 2L26 2L26 1ZM22 4L22 7L21 7L21 9L23 9L23 11L24 11L24 12L25 12L25 10L24 10L24 9L23 9L23 8L24 8L24 7L23 7L23 5L24 5L24 4ZM12 7L12 8L13 8L13 7ZM22 7L22 8L23 8L23 7ZM4 8L4 9L5 9L5 10L6 10L6 11L8 11L8 10L9 10L9 9L7 9L7 8ZM6 9L6 10L7 10L7 9ZM30 10L30 11L29 11L29 12L30 12L30 13L31 13L31 12L32 12L32 11L31 11L31 10ZM30 11L30 12L31 12L31 11ZM3 13L3 14L5 14L5 13ZM20 13L20 14L19 14L19 15L20 15L20 16L21 16L21 17L22 17L22 16L21 16L21 15L20 15L20 14L21 14L21 13ZM6 15L6 16L4 16L4 17L3 17L3 18L5 18L5 19L6 19L6 20L8 20L8 19L6 19L6 18L7 18L7 17L6 17L6 16L7 16L7 15ZM12 15L12 16L13 16L13 15ZM8 16L8 17L9 17L9 16ZM26 16L26 17L27 17L27 16ZM35 16L35 17L36 17L36 16ZM1 19L1 20L2 20L2 21L3 21L3 19ZM26 20L26 21L25 21L25 22L26 22L26 21L27 21L27 24L26 24L26 25L25 25L25 26L26 26L26 25L27 25L27 27L28 27L28 26L29 26L29 25L27 25L27 24L28 24L28 22L29 22L29 21L28 21L28 20ZM12 21L12 22L11 22L11 24L12 24L12 25L13 25L13 26L15 26L15 25L14 25L14 23L15 23L15 24L18 24L18 23L16 23L16 22L13 22L13 21ZM12 23L12 24L13 24L13 23ZM19 23L19 24L20 24L20 25L21 25L21 24L20 24L20 23ZM6 24L6 25L7 25L7 26L10 26L10 24ZM12 27L12 28L13 28L13 29L16 29L16 28L15 28L15 27L14 27L14 28L13 28L13 27ZM18 28L18 29L19 29L19 28ZM26 28L26 29L25 29L25 30L26 30L26 29L27 29L27 28ZM29 29L29 32L32 32L32 29ZM30 30L30 31L31 31L31 30ZM12 31L12 32L11 32L11 34L10 34L10 35L11 35L11 36L12 36L12 35L13 35L13 36L14 36L14 35L15 35L15 34L16 34L16 35L17 35L17 34L16 34L16 31L14 31L14 33L15 33L15 34L13 34L13 33L12 33L12 32L13 32L13 31ZM23 31L23 32L24 32L24 31ZM26 31L26 33L27 33L27 31ZM20 33L20 34L21 34L21 33ZM0 0L0 7L7 7L7 0ZM1 1L1 6L6 6L6 1ZM2 2L2 5L5 5L5 2ZM30 0L30 7L37 7L37 0ZM31 1L31 6L36 6L36 1ZM32 2L32 5L35 5L35 2ZM0 30L0 37L7 37L7 30ZM1 31L1 36L6 36L6 31ZM2 32L2 35L5 35L5 32Z" fill="#000000"/></g></g></svg>
