<?xml version="1.0" encoding="UTF-8"?>
<svg xmlns="http://www.w3.org/2000/svg" version="1.1" width="100" height="100" viewBox="0 0 100 100"><rect x="0" y="0" width="100" height="100" fill="#ffffff"/><g transform="scale(3.03)"><g transform="translate(0,0)"><path fill-rule="evenodd" d="M9 0L9 1L8 1L8 2L9 2L9 3L8 3L8 4L11 4L11 5L10 5L10 7L9 7L9 5L8 5L8 7L9 7L9 8L6 8L6 9L7 9L7 10L6 10L6 11L7 11L7 12L5 12L5 11L3 11L3 10L2 10L2 9L4 9L4 10L5 10L5 8L0 8L0 10L1 10L1 11L3 11L3 12L2 12L2 15L0 15L0 17L1 17L1 18L0 18L0 19L3 19L3 20L0 20L0 25L1 25L1 21L2 21L2 25L3 25L3 22L4 22L4 23L5 23L5 21L7 21L7 22L6 22L6 23L7 23L7 24L6 24L6 25L7 25L7 24L8 24L8 21L9 21L9 22L10 22L10 21L11 21L11 22L12 22L12 23L11 23L11 24L10 24L10 23L9 23L9 25L8 25L8 27L9 27L9 28L8 28L8 33L11 33L11 32L12 32L12 31L13 31L13 30L14 30L14 29L17 29L17 30L15 30L15 31L14 31L14 32L13 32L13 33L15 33L15 32L16 32L16 31L17 31L17 30L18 30L18 32L19 32L19 30L20 30L20 29L21 29L21 32L20 32L20 33L21 33L21 32L22 32L22 30L24 30L24 31L25 31L25 32L23 32L23 33L25 33L25 32L26 32L26 33L28 33L28 32L27 32L27 30L26 30L26 31L25 31L25 30L24 30L24 29L28 29L28 30L29 30L29 32L31 32L31 33L32 33L32 32L31 32L31 31L32 31L32 30L31 30L31 29L33 29L33 27L32 27L32 26L33 26L33 24L32 24L32 26L31 26L31 25L30 25L30 24L31 24L31 23L32 23L32 22L33 22L33 21L32 21L32 20L31 20L31 19L32 19L32 18L33 18L33 17L32 17L32 16L31 16L31 15L32 15L32 14L33 14L33 13L31 13L31 15L30 15L30 13L29 13L29 10L27 10L27 9L28 9L28 8L27 8L27 9L26 9L26 8L24 8L24 7L25 7L25 6L24 6L24 7L23 7L23 5L24 5L24 4L25 4L25 3L24 3L24 4L23 4L23 3L22 3L22 2L23 2L23 1L24 1L24 0L23 0L23 1L22 1L22 2L21 2L21 0L18 0L18 1L20 1L20 2L19 2L19 4L18 4L18 3L17 3L17 0L15 0L15 1L12 1L12 0ZM11 1L11 2L10 2L10 3L11 3L11 4L13 4L13 5L15 5L15 4L13 4L13 3L14 3L14 2L12 2L12 1ZM15 2L15 3L16 3L16 2ZM20 2L20 4L22 4L22 3L21 3L21 2ZM11 5L11 7L10 7L10 8L9 8L9 9L8 9L8 10L7 10L7 11L8 11L8 12L7 12L7 13L5 13L5 14L4 14L4 13L3 13L3 16L2 16L2 17L3 17L3 18L4 18L4 17L5 17L5 18L7 18L7 17L6 17L6 16L7 16L7 15L6 15L6 16L5 16L5 14L8 14L8 15L9 15L9 16L10 16L10 15L11 15L11 16L13 16L13 17L10 17L10 18L11 18L11 19L10 19L10 20L9 20L9 21L10 21L10 20L11 20L11 21L13 21L13 22L16 22L16 21L17 21L17 22L18 22L18 21L20 21L20 22L19 22L19 24L18 24L18 23L16 23L16 24L18 24L18 25L13 25L13 24L15 24L15 23L13 23L13 24L11 24L11 25L9 25L9 27L10 27L10 26L11 26L11 27L12 27L12 26L11 26L11 25L13 25L13 26L17 26L17 29L20 29L20 28L21 28L21 29L24 29L24 28L21 28L21 25L23 25L23 26L22 26L22 27L23 27L23 26L24 26L24 25L23 25L23 23L24 23L24 24L29 24L29 21L31 21L31 20L29 20L29 21L27 21L27 20L28 20L28 19L29 19L29 17L30 17L30 19L31 19L31 16L30 16L30 15L29 15L29 13L27 13L27 12L28 12L28 11L27 11L27 10L26 10L26 9L24 9L24 8L23 8L23 7L22 7L22 6L21 6L21 7L22 7L22 8L20 8L20 9L21 9L21 10L19 10L19 9L18 9L18 10L17 10L17 9L15 9L15 10L14 10L14 9L13 9L13 8L14 8L14 6L13 6L13 8L11 8L11 7L12 7L12 5ZM18 5L18 6L17 6L17 8L18 8L18 6L19 6L19 7L20 7L20 5ZM15 6L15 8L16 8L16 6ZM10 8L10 9L11 9L11 10L9 10L9 12L8 12L8 13L9 13L9 15L10 15L10 11L11 11L11 12L13 12L13 13L14 13L14 14L12 14L12 13L11 13L11 14L12 14L12 15L14 15L14 14L15 14L15 15L16 15L16 14L17 14L17 15L18 15L18 14L20 14L20 15L19 15L19 17L18 17L18 16L14 16L14 17L13 17L13 18L12 18L12 19L11 19L11 20L13 20L13 18L15 18L15 19L16 19L16 18L17 18L17 17L18 17L18 18L20 18L20 19L21 19L21 20L20 20L20 21L21 21L21 22L24 22L24 21L26 21L26 22L25 22L25 23L28 23L28 22L27 22L27 21L26 21L26 20L23 20L23 21L21 21L21 20L22 20L22 18L25 18L25 19L26 19L26 18L27 18L27 17L29 17L29 15L25 15L25 16L24 16L24 15L23 15L23 17L21 17L21 16L22 16L22 15L21 15L21 14L24 14L24 13L25 13L25 14L27 14L27 13L26 13L26 12L25 12L25 11L26 11L26 10L25 10L25 11L24 11L24 13L21 13L21 12L23 12L23 10L24 10L24 9L23 9L23 10L22 10L22 11L20 11L20 13L15 13L15 12L13 12L13 11L14 11L14 10L13 10L13 9L11 9L11 8ZM29 8L29 9L30 9L30 8ZM31 8L31 10L33 10L33 9L32 9L32 8ZM11 10L11 11L12 11L12 10ZM15 10L15 11L16 11L16 12L17 12L17 11L16 11L16 10ZM30 11L30 12L31 12L31 11ZM0 12L0 14L1 14L1 12ZM26 16L26 17L27 17L27 16ZM8 17L8 19L9 19L9 17ZM15 17L15 18L16 18L16 17ZM20 17L20 18L21 18L21 17ZM4 19L4 20L3 20L3 21L5 21L5 20L7 20L7 21L8 21L8 20L7 20L7 19ZM18 19L18 20L17 20L17 21L18 21L18 20L19 20L19 19ZM14 20L14 21L16 21L16 20ZM30 22L30 23L31 23L31 22ZM21 23L21 24L20 24L20 25L19 25L19 26L18 26L18 27L19 27L19 26L20 26L20 25L21 25L21 24L22 24L22 23ZM25 25L25 28L28 28L28 25ZM29 25L29 27L31 27L31 28L29 28L29 29L31 29L31 28L32 28L32 27L31 27L31 26L30 26L30 25ZM26 26L26 27L27 27L27 26ZM13 27L13 28L16 28L16 27ZM10 28L10 29L11 29L11 28ZM12 29L12 30L11 30L11 31L9 31L9 32L11 32L11 31L12 31L12 30L13 30L13 29ZM0 0L0 7L7 7L7 0ZM1 1L1 6L6 6L6 1ZM2 2L2 5L5 5L5 2ZM26 0L26 7L33 7L33 0ZM27 1L27 6L32 6L32 1ZM28 2L28 5L31 5L31 2ZM0 26L0 33L7 33L7 26ZM1 27L1 32L6 32L6 27ZM2 28L2 31L5 31L5 28Z" fill="#000000"/></g></g></svg>
