<?xml version="1.0" encoding="UTF-8"?>
<svg xmlns="http://www.w3.org/2000/svg" version="1.1" width="100" height="100" viewBox="0 0 100 100"><rect x="0" y="0" width="100" height="100" fill="#ffffff"/><g transform="scale(3.448)"><g transform="translate(0,0)"><path fill-rule="evenodd" d="M8 0L8 1L9 1L9 2L10 2L10 3L11 3L11 1L13 1L13 2L12 2L12 4L11 4L11 5L10 5L10 4L9 4L9 5L10 5L10 8L9 8L9 6L8 6L8 8L9 8L9 10L10 10L10 11L8 11L8 9L7 9L7 8L6 8L6 9L7 9L7 10L6 10L6 11L7 11L7 12L6 12L6 13L5 13L5 14L6 14L6 15L5 15L5 16L4 16L4 15L1 15L1 14L2 14L2 13L3 13L3 12L4 12L4 10L5 10L5 8L3 8L3 9L4 9L4 10L2 10L2 12L1 12L1 13L0 13L0 15L1 15L1 16L0 16L0 21L5 21L5 20L6 20L6 21L7 21L7 20L8 20L8 19L7 19L7 18L9 18L9 19L10 19L10 21L11 21L11 19L12 19L12 21L13 21L13 20L14 20L14 17L16 17L16 16L17 16L17 15L18 15L18 14L19 14L19 15L20 15L20 14L21 14L21 16L19 16L19 17L17 17L17 19L16 19L16 18L15 18L15 19L16 19L16 21L17 21L17 22L14 22L14 23L15 23L15 24L14 24L14 25L13 25L13 24L12 24L12 28L13 28L13 29L15 29L15 28L16 28L16 26L17 26L17 24L19 24L19 25L21 25L21 28L20 28L20 26L19 26L19 27L18 27L18 29L22 29L22 28L23 28L23 29L26 29L26 28L27 28L27 27L28 27L28 28L29 28L29 25L28 25L28 26L27 26L27 25L26 25L26 21L28 21L28 20L27 20L27 19L25 19L25 18L28 18L28 19L29 19L29 18L28 18L28 17L24 17L24 16L25 16L25 15L26 15L26 16L27 16L27 14L28 14L28 16L29 16L29 11L28 11L28 13L27 13L27 14L26 14L26 13L23 13L23 11L24 11L24 12L25 12L25 9L23 9L23 8L22 8L22 9L23 9L23 10L22 10L22 11L21 11L21 10L20 10L20 8L21 8L21 5L20 5L20 4L21 4L21 2L20 2L20 1L19 1L19 0L18 0L18 1L19 1L19 2L20 2L20 3L15 3L15 2L14 2L14 1L15 1L15 0L14 0L14 1L13 1L13 0L11 0L11 1L9 1L9 0ZM16 0L16 2L17 2L17 0ZM13 3L13 4L12 4L12 5L11 5L11 7L12 7L12 9L10 9L10 10L12 10L12 11L13 11L13 12L14 12L14 13L11 13L11 12L10 12L10 14L8 14L8 13L9 13L9 12L7 12L7 13L6 13L6 14L7 14L7 15L6 15L6 16L5 16L5 18L3 18L3 17L2 17L2 16L1 16L1 17L2 17L2 18L3 18L3 19L2 19L2 20L4 20L4 19L6 19L6 20L7 20L7 19L6 19L6 18L7 18L7 17L6 17L6 16L7 16L7 15L8 15L8 16L9 16L9 18L10 18L10 19L11 19L11 18L10 18L10 17L13 17L13 16L14 16L14 13L16 13L16 15L17 15L17 14L18 14L18 13L19 13L19 14L20 14L20 12L19 12L19 11L20 11L20 10L19 10L19 11L18 11L18 12L17 12L17 11L15 11L15 10L18 10L18 9L19 9L19 8L20 8L20 5L18 5L18 4L17 4L17 7L16 7L16 5L15 5L15 7L14 7L14 5L13 5L13 4L15 4L15 3ZM12 5L12 7L13 7L13 9L12 9L12 10L13 10L13 9L15 9L15 8L14 8L14 7L13 7L13 5ZM18 6L18 7L19 7L19 6ZM0 8L0 9L2 9L2 8ZM16 8L16 9L18 9L18 8ZM28 8L28 9L26 9L26 11L27 11L27 10L28 10L28 9L29 9L29 8ZM0 10L0 11L1 11L1 10ZM14 11L14 12L15 12L15 11ZM16 12L16 13L17 13L17 12ZM21 12L21 14L22 14L22 15L23 15L23 16L21 16L21 19L20 19L20 20L22 20L22 19L24 19L24 17L23 17L23 16L24 16L24 15L23 15L23 14L22 14L22 12ZM11 14L11 15L10 15L10 16L12 16L12 15L13 15L13 14ZM12 18L12 19L13 19L13 18ZM18 18L18 19L17 19L17 20L18 20L18 21L19 21L19 18ZM8 21L8 22L9 22L9 24L8 24L8 26L9 26L9 27L8 27L8 29L9 29L9 27L10 27L10 29L11 29L11 25L10 25L10 24L11 24L11 22L9 22L9 21ZM21 21L21 24L24 24L24 21ZM12 22L12 23L13 23L13 22ZM17 22L17 23L16 23L16 24L17 24L17 23L19 23L19 22ZM22 22L22 23L23 23L23 22ZM28 23L28 24L29 24L29 23ZM14 25L14 27L13 27L13 28L14 28L14 27L15 27L15 26L16 26L16 25ZM22 25L22 27L23 27L23 28L25 28L25 27L26 27L26 25ZM23 26L23 27L25 27L25 26ZM0 0L0 7L7 7L7 0ZM1 1L1 6L6 6L6 1ZM2 2L2 5L5 5L5 2ZM22 0L22 7L29 7L29 0ZM23 1L23 6L28 6L28 1ZM24 2L24 5L27 5L27 2ZM0 22L0 29L7 29L7 22ZM1 23L1 28L6 28L6 23ZM2 24L2 27L5 27L5 24Z" fill="#000000"/></g></g></svg>
